PathFileType	4	(X/Y/Z)	C:/Users/opensim2020/Desktop/walking_exp_matlab/subject03_walking11_straight_04.trc	
DataRate	CameraRate	NumFrames	NumMarkers	Units	OrigDataRate	OrigDataStartFrame	OrigNumFrames	
100.00	100.00	7	46	mm	100.00	4010	350	
Frame#	Time	LFHD			RFHD			LBHD			RBHD			C7			T10			CLAV			STRN			RBAK			LSHO			LUPA			LELB			LFRM			LWRA			LWRB			LFIN			RSHO			RUPA			RELB			RFRM			RWRA			RWRB			RFIN			LASI			RASI			LPSI			RPSI			LTHI			LKNE			LTIB			LANK			LHEE			LTOE			RTHI			RKNE			RTIB			RANK			RHEE			RTOE			*39			*40			*41			*42			*43			*44			*45			
		X1	Y1	Z1	X2	Y2	Z2	X3	Y3	Z3	X4	Y4	Z4	X5	Y5	Z5	X6	Y6	Z6	X7	Y7	Z7	X8	Y8	Z8	X9	Y9	Z9	X10	Y10	Z10	X11	Y11	Z11	X12	Y12	Z12	X13	Y13	Z13	X14	Y14	Z14	X15	Y15	Z15	X16	Y16	Z16	X17	Y17	Z17	X18	Y18	Z18	X19	Y19	Z19	X20	Y20	Z20	X21	Y21	Z21	X22	Y22	Z22	X23	Y23	Z23	X24	Y24	Z24	X25	Y25	Z25	X26	Y26	Z26	X27	Y27	Z27	X28	Y28	Z28	X29	Y29	Z29	X30	Y30	Z30	X31	Y31	Z31	X32	Y32	Z32	X33	Y33	Z33	X34	Y34	Z34	X35	Y35	Z35	X36	Y36	Z36	X37	Y37	Z37	X38	Y38	Z38	X39	Y39	Z39	X40	Y40	Z40	X41	Y41	Z41	X42	Y42	Z42	X43	Y43	Z43	X44	Y44	Z44	X45	Y45	Z45	X46	Y46	Z46	

263	2.620	-952.02167	-641.95020	1614.82117	-1084.73108	-635.34528	1618.64185	-951.87952	-524.37878	1548.15259	-1082.51025	-522.69672	1552.46033	-1020.28595	-507.55716	1405.47839	-1027.21191	-463.70193	1094.33789	-1011.02649	-629.74921	1327.44019	-1007.25232	-662.95276	1159.36646	-1128.92163	-462.06631	1237.74231	-858.06610	-573.59680	1361.35474	-795.37659	-538.46606	1162.89600	-788.21613	-529.88788	1038.92773	-792.44543	-546.66895	909.61627	-826.46973	-561.75549	792.85168	-778.40936	-533.09363	796.47131	-791.71613	-543.52863	712.79987	-1173.30811	-605.68292	1353.93933	-1247.00525	-639.47095	1135.32678	-1262.11963	-675.38257	1029.47156	-1262.35449	-726.95410	902.70599	-1225.26294	-782.16705	820.95074	-1268.20557	-752.96674	805.86743	-1257.91919	-795.83295	745.69202	-903.22614	-626.34857	929.94366	-1140.78857	-633.87775	927.60864	-956.27081	-465.04321	945.53412	-1105.69043	-472.44110	957.52625	-852.56812	-627.07141	629.19806	-890.91003	-690.83704	463.27847	-880.95538	-695.36658	272.70496	-906.99097	-747.63708	65.96497	-946.49646	-719.48663	22.90614	-920.71594	-902.20984	56.45257	-1178.52319	-550.62036	635.53003	-1143.02710	-532.16406	456.17465	-1150.81506	-443.50797	283.37106	-1105.77441	-361.99176	80.16789	-1058.54517	-308.85434	55.59281	-1077.87817	-496.43079	30.48993	-998.64929	-547.86780	1660.27783																		 
264	2.630	-950.20093	-648.43726	1614.54871	-1083.15076	-641.56866	1618.39600	-950.11560	-530.89154	1547.65015	-1080.75183	-528.99347	1552.03418	-1018.50061	-514.10034	1405.11292	-1025.26404	-470.69250	1093.88989	-1009.52502	-636.59833	1327.15894	-1005.94635	-670.06763	1159.17688	-1126.89502	-468.51028	1237.32715	-856.25696	-580.85938	1361.02747	-794.13898	-545.08276	1162.31616	-787.14349	-537.05920	1038.41150	-791.88190	-552.73456	909.05798	-826.69470	-566.95032	792.04626	-778.14093	-538.69275	795.90961	-791.84711	-548.33710	712.13733	-1171.68970	-611.89423	1353.69629	-1245.13940	-644.70917	1134.81348	-1260.06824	-680.19885	1028.74487	-1259.88977	-731.83606	902.04779	-1222.60144	-787.43713	820.68152	-1265.27966	-758.04150	805.21423	-1254.67139	-800.92987	745.07355	-902.02789	-633.85388	929.54199	-1139.66882	-640.34711	927.05365	-954.09406	-472.38800	945.43042	-1103.79517	-478.92114	957.29401	-852.02203	-634.72351	629.18573	-890.36273	-696.75171	462.61874	-881.45093	-698.29901	271.33600	-906.97040	-748.96643	65.50189	-946.80951	-719.99854	23.49161	-922.04919	-903.76923	49.63267	-1177.57056	-555.81543	635.22992	-1142.44397	-536.81311	455.88834	-1150.38257	-446.25488	283.94901	-1105.67773	-362.63440	81.38931	-1058.60364	-309.37073	57.38013	-1077.97168	-496.65527	30.46853	-996.87482	-554.32202	1659.78870																		 
265	2.640	-948.54279	-654.82056	1614.54663	-1081.52185	-647.77655	1618.47266	-948.34235	-537.43976	1547.30237	-1078.96204	-535.35815	1551.78088	-1016.38226	-520.67194	1404.92224	-1023.05615	-477.83984	1093.59680	-1007.92377	-643.48254	1327.16492	-1004.62634	-677.11078	1159.23877	-1124.55127	-474.83923	1237.15894	-854.40112	-588.11536	1360.84009	-792.61359	-552.22809	1162.02161	-786.23999	-543.23523	1038.00269	-791.21637	-559.02423	908.51477	-826.00378	-572.96356	791.72906	-777.77972	-544.51166	795.41620	-791.84198	-553.44128	711.55859	-1170.06458	-617.91504	1353.53540	-1243.34106	-649.89966	1134.32861	-1258.16785	-684.86676	1028.04602	-1257.44910	-736.59094	901.37469	-1219.89209	-792.49640	820.31232	-1262.30847	-762.92035	804.53717	-1251.41992	-805.83386	744.43005	-900.93372	-641.45129	929.41443	-1138.64490	-646.85950	926.64349	-952.10181	-479.53656	945.66437	-1101.80347	-485.45047	957.04303	-851.56378	-642.28711	629.86322	-889.88202	-701.17059	462.27704	-881.76666	-701.88531	270.90826	-906.35065	-752.72101	64.87083	-946.44940	-722.21307	24.95925	-923.26953	-906.72046	44.43882	-1176.56421	-561.16956	634.98108	-1141.64404	-541.62634	455.69556	-1149.80835	-449.17899	284.66425	-1105.82324	-363.41034	83.06380	-1058.78394	-309.92068	59.49534	-1078.11047	-496.75201	30.11469	-995.11243	-560.35596	1659.63977																		 
266	2.650	-947.01190	-661.06860	1614.82043	-1079.89880	-653.99951	1618.84229	-946.58759	-543.93066	1547.33411	-1077.13452	-541.68933	1551.77759	-1014.31317	-527.37787	1405.03833	-1021.12146	-484.98853	1093.69849	-1006.31372	-650.37836	1327.44250	-1003.26447	-684.10425	1159.48157	-1122.07825	-481.13202	1237.11047	-852.37976	-595.53363	1360.80127	-791.00073	-559.33740	1161.75745	-785.02618	-550.60236	1037.74255	-790.50433	-565.56244	908.15515	-825.60626	-579.01807	791.40222	-777.35101	-550.61902	795.09100	-791.75848	-558.90308	711.13086	-1168.52563	-624.01727	1353.56458	-1241.54297	-654.96063	1134.00208	-1256.20117	-689.50281	1027.43311	-1255.02380	-741.17914	900.76715	-1217.25122	-797.25146	819.89124	-1259.37439	-767.37915	803.94452	-1248.21399	-810.40436	743.88226	-899.91327	-649.15833	929.50494	-1137.57471	-653.49860	926.32458	-949.85565	-487.25470	945.94104	-1099.83008	-492.22864	956.88867	-851.17700	-649.66327	630.82977	-888.89349	-705.30469	462.12222	-880.28864	-706.13464	271.12579	-904.74060	-756.15125	64.78409	-945.09711	-724.06818	26.51127	-924.64459	-909.74951	40.45892	-1175.49194	-566.69598	634.95392	-1140.88940	-546.71979	455.67346	-1149.21497	-452.37253	285.58908	-1105.63611	-364.44244	84.71326	-1058.63855	-310.61304	61.88129	-1078.14575	-496.99045	30.11983	-993.09924	-566.57013	1659.62488																		 
267	2.660	-945.07544	-667.58142	1615.30847	-1078.15857	-660.19092	1619.27258	-944.76715	-550.53363	1547.55774	-1075.30664	-548.07916	1552.04688	-1012.05243	-534.35382	1405.39526	-1019.15833	-492.10907	1093.78174	-1004.69281	-657.37146	1327.87305	-1001.86041	-691.25360	1159.89404	-1119.73499	-487.52097	1237.20020	-850.38702	-603.12115	1360.83276	-789.40778	-566.53363	1161.69861	-783.78748	-557.57910	1037.59827	-789.69135	-572.26172	907.90631	-825.34161	-584.87756	791.12891	-776.81134	-556.91620	794.84485	-791.53473	-564.75165	710.98895	-1166.91882	-630.27051	1353.81116	-1239.76453	-659.97040	1133.88635	-1254.28650	-694.04767	1027.04773	-1252.59436	-745.55444	900.26074	-1214.64417	-801.82294	819.74805	-1256.50232	-771.70422	803.42749	-1245.05920	-814.77039	743.41888	-898.88666	-656.96722	929.94110	-1136.48523	-660.12115	926.14954	-948.09320	-494.64749	946.66858	-1097.96533	-499.22198	956.93036	-850.87366	-656.37592	631.47595	-887.81158	-709.67767	462.04520	-878.66992	-710.47534	271.02817	-904.45984	-759.31824	64.17535	-944.01971	-725.84094	27.53947	-925.17883	-912.63568	37.35810	-1174.38940	-572.41449	635.07397	-1140.09387	-552.03381	455.77414	-1148.59656	-455.65640	286.69540	-1105.50891	-365.41083	86.79952	-1058.27185	-311.41916	64.55494	-1078.20752	-497.21030	30.03125	-991.44330	-572.53400	1659.91711																		 
268	2.670	-943.38898	-674.00836	1615.81079	-1076.38330	-666.40460	1619.75037	-942.89551	-557.09448	1547.80847	-1073.45203	-554.46686	1552.33350	-1010.23041	-541.20459	1405.88672	-1017.40027	-499.11911	1094.18225	-1003.02673	-664.34229	1328.40796	-1000.41907	-698.56085	1160.50854	-1117.34204	-493.98483	1237.48230	-848.44141	-610.80310	1361.02039	-787.68610	-574.08807	1161.88916	-782.38995	-565.03992	1037.73901	-788.80536	-579.26715	907.93695	-824.68182	-591.57513	791.32599	-776.20251	-563.56635	794.91125	-791.18597	-570.96094	711.04883	-1165.26526	-636.59338	1354.22839	-1237.91785	-665.05469	1133.99634	-1252.32935	-698.57349	1026.91443	-1250.14624	-749.80585	899.99628	-1211.95605	-806.02643	819.46509	-1253.67053	-775.71027	803.11475	-1241.90454	-818.72107	743.00934	-897.80719	-664.80908	930.68243	-1135.30603	-666.85645	926.18573	-946.06134	-502.31342	947.51282	-1096.15320	-506.23364	957.12872	-850.54285	-662.41724	631.99756	-886.84418	-713.94019	461.84058	-877.43475	-714.54022	270.84332	-904.39716	-761.49420	63.92087	-943.58789	-726.94958	28.04783	-923.99463	-914.91901	35.16034	-1173.26355	-578.32611	635.28241	-1139.27563	-557.59412	455.98749	-1147.94568	-459.07458	287.95801	-1105.18286	-366.82089	88.76847	-1058.09875	-312.47516	67.45379	-1078.35876	-497.33270	29.92859	-989.52112	-578.87305	1660.09045																		 
269	2.680	-941.58661	-680.48553	1616.57825	-1074.68701	-672.67090	1620.41406	-941.22717	-563.54395	1548.23328	-1071.56360	-560.89929	1552.66980	-1008.02399	-548.16095	1406.38904	-1015.38495	-506.18906	1094.62109	-1001.34125	-671.44269	1329.11365	-998.92493	-705.80444	1161.26294	-1114.94873	-500.54312	1237.97351	-846.56775	-618.43683	1361.56995	-785.90198	-581.98242	1162.32239	-780.85767	-572.45184	1037.99353	-787.80029	-586.60986	908.24725	-824.06647	-598.32910	791.69788	-775.41797	-570.54254	795.20422	-790.73047	-577.63275	711.33057	-1163.65149	-642.89203	1354.97998	-1236.00195	-670.15723	1134.37305	-1250.33240	-703.03296	1027.04944	-1247.77173	-753.88208	899.95752	-1209.37817	-810.00354	819.45306	-1250.94910	-779.53412	802.97076	-1239.03577	-822.42584	742.83252	-896.59821	-672.57013	931.62109	-1134.04370	-673.68433	926.37439	-944.37054	-509.46750	948.68195	-1094.37549	-513.24420	957.49207	-849.79559	-667.82642	632.75958	-885.97028	-718.85803	462.00711	-876.25836	-718.33331	270.93735	-904.33936	-762.11224	64.17698	-943.72626	-727.53448	28.38578	-922.73438	-916.64240	34.03771	-1172.05481	-584.51044	635.54309	-1138.50830	-563.45032	456.28470	-1147.39941	-462.83585	289.40198	-1105.23914	-368.01337	91.36298	-1057.95935	-313.58783	70.80383	-1078.35315	-497.76184	29.99027	-987.84082	-585.34442	1660.45740																		 
